<svg xmlns="http://www.w3.org/2000/svg" viewBox="0 0 24 24" width="512" height="512"><rect x="7" y="3" width="3" height="3" fill="#00ff41"/><rect x="14" y="3" width="3" height="3" fill="#00ff41"/><rect x="8" y="4" width="2" height="2" fill="#0a0a0f"/><rect x="15" y="4" width="2" height="2" fill="#0a0a0f"/><rect x="6" y="6" width="12" height="10" rx="1" fill="#00ff41"/><rect x="8" y="9" width="2" height="2" fill="#000"/><rect x="14" y="9" width="2" height="2" fill="#000"/><rect x="11" y="12" width="2" height="1" fill="#000"/><rect x="10" y="14" width="4" height="1" fill="#000"/><rect x="9" y="10" width="6" height="5" fill="#0a0a0f" opacity="0.2"/><rect x="5" y="15" width="14" height="7" rx="1" fill="#00ff41"/><rect x="8" y="16" width="8" height="4" fill="#0a0a0f" opacity="0.2"/><rect x="6" y="19" width="3" height="3" fill="#00ff41"/><rect x="15" y="19" width="3" height="3" fill="#00ff41"/><rect x="7" y="20" width="1" height="1" fill="#0a0a0f" opacity="0.3"/><rect x="16" y="20" width="1" height="1" fill="#0a0a0f" opacity="0.3"/></svg>