<svg xmlns="http://www.w3.org/2000/svg" viewBox="0 0 24 24" width="512" height="512">
    <!-- Bunny ears -->
    <rect x="7" y="1" width="3" height="5" fill="#f5f5f5"/>
    <rect x="14" y="1" width="3" height="5" fill="#f5f5f5"/>
    <rect x="8" y="2" width="2" height="3" fill="#f9a8d4"/>
    <rect x="15" y="2" width="2" height="3" fill="#f9a8d4"/>
    <!-- Bunny head peeking over egg -->
    <rect x="8" y="4" width="8" height="5" rx="1" fill="#f5f5f5"/>
    <rect x="9" y="5" width="6" height="3" fill="#fef3c7"/>
    <!-- Cheek fluff -->
    <rect x="7" y="6" width="2" height="3" fill="#f5f5f5"/>
    <rect x="15" y="6" width="2" height="3" fill="#f5f5f5"/>
    <!-- Eyes -->
    <rect x="9" y="6" width="2" height="2" fill="#000"/>
    <rect x="13" y="6" width="2" height="2" fill="#000"/>
    <rect x="10" y="7" width="1" height="1" fill="#000"/>
    <rect x="14" y="7" width="1" height="1" fill="#000"/>
    <rect x="9" y="6" width="1" height="1" fill="#fff"/>
    <rect x="13" y="6" width="1" height="1" fill="#fff"/>
    <!-- Nose -->
    <rect x="11" y="8" width="2" height="1" fill="#f472b6"/>
    <!-- Mouth / teeth -->
    <rect x="11" y="9" width="2" height="1" fill="#1f1f1f"/>
    <rect x="11" y="9" width="1" height="1" fill="#fff"/>
    <rect x="12" y="9" width="1" height="1" fill="#fff"/>
    <!-- Giant Easter Egg -->
    <rect x="7" y="9" width="10" height="1" fill="#c4b5fd"/>
    <rect x="5" y="10" width="14" height="1" fill="#c4b5fd"/>
    <rect x="4" y="11" width="16" height="1" fill="#a78bfa"/>
    <rect x="3" y="12" width="18" height="1" fill="#a78bfa"/>
    <rect x="3" y="13" width="18" height="9" fill="#a78bfa"/>
    <rect x="4" y="22" width="16" height="1" fill="#a78bfa"/>
    <rect x="4" y="23" width="16" height="1" fill="#a78bfa"/>
    <rect x="5" y="23" width="14" height="1" fill="#a78bfa"/>
    <rect x="7" y="23" width="10" height="1" fill="#a78bfa"/>
    <!-- Egg shine -->
    <rect x="5" y="11" width="3" height="9" fill="#c4b5fd" opacity="0.5"/>
    <rect x="6" y="13" width="2" height="7" fill="#ddd6fe" opacity="0.4"/>
    <!-- Egg decorations -->
    <!-- Teal wave stripe -->
    <rect x="3" y="15" width="18" height="2" fill="#14b8a6"/>
    <rect x="4" y="16" width="16" height="1" fill="#0d9488"/>
    <!-- Pink polka dots -->
    <rect x="5" y="18" width="2" height="2" fill="#f472b6"/>
    <rect x="9" y="21" width="2" height="2" fill="#f472b6"/>
    <rect x="13" y="18" width="2" height="2" fill="#f472b6"/>
    <rect x="17" y="21" width="2" height="2" fill="#f472b6"/>
    <!-- Green bottom stripe -->
    <rect x="4" y="21" width="16" height="1" fill="#22c55e"/>
  </svg>