<svg xmlns="http://www.w3.org/2000/svg" viewBox="0 0 24 24" width="512" height="512">
    <!-- Tail -->
    <rect x="1" y="13" width="2" height="4" fill="${LEG_COLOR}"/>
    <rect x="0" y="14" width="2" height="3" fill="${LEG_ACCENT}"/>
    <!-- Back leg -->
    <rect x="3" y="17" width="4" height="7" fill="${LEG_COLOR}"/>
    <rect x="4" y="18" width="2" height="5" fill="${LEG_ACCENT}"/>
    <rect x="3" y="22" width="4" height="2" fill="#78350f"/>
    <rect x="4" y="22" width="2" height="1" fill="#92400e"/>
    <!-- Body (bigger) -->
    <rect x="3" y="11" width="12" height="9" rx="1" fill="${LEG_COLOR}"/>
    <rect x="4" y="12" width="10" height="7" fill="${LEG_ACCENT}"/>
    <!-- Blanket / saddle -->
    <rect x="5" y="11" width="8" height="3" fill="#ef4444"/>
    <rect x="6" y="12" width="6" height="1" fill="#fca5a5"/>
    <!-- Front leg -->
    <rect x="11" y="18" width="4" height="6" fill="${LEG_COLOR}"/>
    <rect x="12" y="19" width="2" height="4" fill="${LEG_ACCENT}"/>
    <rect x="11" y="22" width="4" height="2" fill="#78350f"/>
    <rect x="12" y="22" width="2" height="1" fill="#92400e"/>
    <!-- Neck (long, thick) -->
    <rect x="14" y="5" width="4" height="10" rx="1" fill="${LEG_COLOR}"/>
    <rect x="15" y="6" width="2" height="8" fill="${LEG_ACCENT}"/>
    <!-- Head (side profile facing right) -->
    <rect x="14" y="1" width="7" height="5" rx="1" fill="${LEG_COLOR}"/>
    <rect x="15" y="2" width="5" height="3" fill="${LEG_ACCENT}"/>
    <!-- Snout -->
    <rect x="18" y="4" width="4" height="3" rx="1" fill="#fde68a"/>
    <!-- Nostril -->
    <rect x="20" y="5" width="1" height="1" fill="#f472b6"/>
    <!-- Mouth -->
    <rect x="19" y="6" width="2" height="1" fill="#1f1f1f"/>
    <!-- Eye (side) -->
    <rect x="16" y="3" width="2" height="2" fill="${LEG_BG}"/>
    <rect x="17" y="3" width="1" height="2" fill="#60a5fa"/>
    <rect x="17" y="4" width="1" height="1" fill="#000"/>
    <!-- Eyelash -->
    <rect x="16" y="2" width="2" height="1" fill="${LEG_DARK}"/>
    <!-- Ear -->
    <rect x="14" y="0" width="2" height="3" fill="${LEG_COLOR}"/>
    <rect x="14" y="0" width="1" height="1" fill="#f9a8d4"/>
  </svg>