<svg xmlns="http://www.w3.org/2000/svg" viewBox="0 0 24 24" width="512" height="512">
    <!-- Horns -->
    <rect x="5" y="1" width="2" height="3" fill="#dc2626"/>
    <rect x="17" y="1" width="2" height="3" fill="#dc2626"/>
    <rect x="4" y="1" width="1" height="2" fill="#b91c1c"/>
    <rect x="19" y="1" width="1" height="2" fill="#b91c1c"/>
    <!-- Head -->
    <rect x="6" y="4" width="12" height="3" fill="#d97706"/>
    <rect x="4" y="7" width="16" height="8" rx="1" fill="#d97706"/>
    <!-- Eyes -->
    <rect x="6" y="8" width="4" height="4" fill="#78350f"/>
    <rect x="14" y="8" width="4" height="4" fill="#78350f"/>
    <rect x="7" y="9" width="2" height="2" fill="#ef4444"/>
    <rect x="15" y="9" width="2" height="2" fill="#ef4444"/>
    <rect x="8" y="10" width="1" height="1" fill="#fbbf24"/>
    <rect x="16" y="10" width="1" height="1" fill="#fbbf24"/>
    <!-- Snout -->
    <rect x="9" y="12" width="6" height="3" fill="#fbbf24"/>
    <rect x="11" y="13" width="2" height="1" fill="#1a1a1a"/>
    <!-- Nostrils -->
    <rect x="10" y="14" width="1" height="1" fill="#1a1a1a"/>
    <rect x="13" y="14" width="1" height="1" fill="#1a1a1a"/>
    <!-- Teeth -->
    <rect x="9" y="15" width="1" height="1" fill="#fff"/>
    <rect x="14" y="15" width="1" height="1" fill="#fff"/>
    <!-- Spikes -->
    <rect x="3" y="6" width="1" height="2" fill="#dc2626"/>
    <rect x="20" y="6" width="1" height="2" fill="#dc2626"/>
    <rect x="2" y="8" width="1" height="2" fill="#dc2626"/>
    <rect x="21" y="8" width="1" height="2" fill="#dc2626"/>
    <rect x="3" y="10" width="1" height="2" fill="#dc2626"/>
    <rect x="20" y="10" width="1" height="2" fill="#dc2626"/>
    <!-- Jaw -->
    <rect x="7" y="15" width="10" height="2" fill="#b45309"/>
    <rect x="8" y="17" width="8" height="2" fill="#d97706"/>
    <!-- Whiskers / feelers -->
    <rect x="2" y="12" width="3" height="1" fill="#fbbf24"/>
    <rect x="19" y="12" width="3" height="1" fill="#fbbf24"/>
  </svg>