<svg xmlns="http://www.w3.org/2000/svg" viewBox="0 0 24 24" width="512" height="512">
    <rect x="11" y="1" width="2" height="3" fill="#166534"/>
    <rect x="5" y="4" width="14" height="2" fill="#ea580c"/>
    <rect x="3" y="6" width="18" height="14" rx="1" fill="#ea580c"/>
    <rect x="4" y="7" width="16" height="12" fill="#f97316"/>
    <!-- Ribs -->
    <rect x="7" y="6" width="2" height="14" fill="#c2410c" opacity="0.4"/>
    <rect x="11" y="6" width="2" height="14" fill="#c2410c" opacity="0.4"/>
    <rect x="15" y="6" width="2" height="14" fill="#c2410c" opacity="0.4"/>
    <!-- Eyes -->
    <rect x="6" y="9" width="3" height="3" fill="#1a1a1a"/>
    <rect x="15" y="9" width="3" height="3" fill="#1a1a1a"/>
    <rect x="7" y="10" width="1" height="1" fill="#fbbf24"/>
    <rect x="16" y="10" width="1" height="1" fill="#fbbf24"/>
    <!-- Nose -->
    <rect x="11" y="13" width="2" height="2" fill="#1a1a1a"/>
    <!-- Mouth -->
    <rect x="7" y="17" width="2" height="2" fill="#1a1a1a"/>
    <rect x="10" y="17" width="4" height="2" fill="#1a1a1a"/>
    <rect x="15" y="17" width="2" height="2" fill="#1a1a1a"/>
    <rect x="9" y="20" width="6" height="1" fill="#1a1a1a"/>
    <!-- Glow inside mouth -->
    <rect x="11" y="17" width="2" height="1" fill="#fbbf24" opacity="0.5"/>
  </svg>