<svg xmlns="http://www.w3.org/2000/svg" viewBox="0 0 24 24" width="512" height="512">
    <!-- === BIG SIDE FACE PROFILE (fills canvas, facing left) === -->
    <!-- Massive purple mane (fills right side) -->
    <rect x="12" y="3" width="5" height="20" fill="#6b21a8"/>
    <rect x="10" y="4" width="2" height="18" fill="#6b21a8"/>
    <rect x="17" y="4" width="3" height="18" fill="#6b21a8"/>
    <rect x="20" y="5" width="2" height="16" fill="#6b21a8"/>
    <rect x="22" y="7" width="1" height="12" fill="#6b21a8"/>
    <rect x="9" y="6" width="1" height="14" fill="#6b21a8"/>
    <!-- Mane inner -->
    <rect x="13" y="4" width="4" height="18" fill="#7c3aed"/>
    <rect x="11" y="6" width="2" height="14" fill="#7c3aed"/>
    <rect x="17" y="5" width="2" height="16" fill="#7c3aed"/>
    <!-- Mane highlights -->
    <rect x="13" y="6" width="3" height="14" fill="#a855f7"/>
    <rect x="14" y="8" width="2" height="10" fill="#c084fc"/>
    <rect x="15" y="10" width="1" height="6" fill="#ddd6fe"/>
    <!-- Big head (side facing left) -->
    <rect x="4" y="6" width="11" height="11" rx="1" fill="#f5f5f5"/>
    <rect x="5" y="7" width="9" height="9" fill="#fef3c7"/>
    <!-- Forehead -->
    <rect x="4" y="6" width="8" height="3" fill="#fef3c7"/>
    <!-- Snout (big) -->
    <rect x="0" y="11" width="5" height="6" rx="1" fill="#fde68a"/>
    <rect x="1" y="12" width="4" height="5" fill="#fef3c7"/>
    <!-- Nostril -->
    <rect x="0" y="13" width="1" height="1" fill="#f472b6"/>
    <!-- Mouth -->
    <rect x="1" y="15" width="2" height="1" fill="#1f1f1f"/>
    <!-- Big eye -->
    <rect x="4" y="9" width="3" height="3" fill="#60a5fa"/>
    <rect x="5" y="9" width="2" height="3" fill="#60a5fa"/>
    <rect x="5" y="9" width="1" height="2" fill="#fff"/>
    <rect x="6" y="10" width="1" height="2" fill="#000"/>
    <!-- Eyelash -->
    <rect x="4" y="8" width="3" height="1" fill="#e5e5e5"/>
    <!-- Ear -->
    <rect x="10" y="4" width="3" height="4" fill="#f5f5f5"/>
    <rect x="10" y="4" width="2" height="3" fill="#f9a8d4"/>
    <!-- Sharp horn (thick base → sharp tip) -->
    <!-- Tip (sharp point, 1px) -->
    <rect x="5" y="0" width="1" height="1" fill="#fff"/>
    <!-- Upper shaft (2px wide) -->
    <rect x="5" y="1" width="2" height="1" fill="#fef3c7"/>
    <rect x="5" y="2" width="2" height="1" fill="#fbbf24"/>
    <!-- Middle shaft (3px wide) -->
    <rect x="5" y="3" width="3" height="1" fill="#fef3c7"/>
    <rect x="6" y="3" width="1" height="1" fill="#fbbf24"/>
    <!-- Lower shaft (4px wide) -->
    <rect x="6" y="4" width="3" height="1" fill="#fbbf24"/>
    <rect x="6" y="4" width="1" height="1" fill="#fef3c7"/>
    <!-- Base (thick, 5px wide) -->
    <rect x="6" y="5" width="5" height="1" fill="#f59e0b"/>
    <rect x="7" y="5" width="3" height="1" fill="#fbbf24"/>
    <rect x="8" y="5" width="1" height="1" fill="#fef3c7"/>
    <!-- Horn base connector -->
    <rect x="7" y="6" width="4" height="1" fill="#f59e0b"/>
    <!-- Neck -->
    <rect x="8" y="15" width="5" height="5" fill="#f5f5f5"/>
    <rect x="8" y="16" width="4" height="3" fill="#fef3c7"/>
    <!-- Chest fluff -->
    <rect x="9" y="17" width="4" height="4" fill="#c084fc"/>
    <rect x="10" y="18" width="3" height="3" fill="#ddd6fe"/>
    <rect x="11" y="19" width="2" height="2" fill="#a855f7"/>
  </svg>